<?xml version="1.0" standalone="no"?>
<!DOCTYPE svg PUBLIC "-//W3C//DTD SVG 20010904//EN"
 "http://www.w3.org/TR/2001/REC-SVG-20010904/DTD/svg10.dtd">
<svg version="1.0" xmlns="http://www.w3.org/2000/svg"
 width="64.000000pt" height="64.000000pt" viewBox="0 0 64.000000 64.000000"
 preserveAspectRatio="xMidYMid meet">

<g transform="translate(0.000000,64.000000) scale(0.100000,-0.100000)"
fill="#000000" stroke="none">
<path d="M92 597 c-23 -24 -29 -47 -13 -47 5 0 13 9 16 20 3 11 17 23 31 26
28 7 32 24 6 24 -10 0 -28 -10 -40 -23z"/>
<path d="M291 586 l-164 -31 -34 -45 c-32 -41 -35 -49 -30 -95 3 -27 9 -65 13
-84 8 -37 10 -36 -45 -13 -8 3 -12 0 -9 -8 2 -7 25 -21 52 -32 l48 -18 38 30
c21 16 41 30 44 30 12 0 5 -26 -14 -50 -11 -14 -20 -29 -20 -34 0 -5 27 -6 61
-3 52 4 60 3 57 -11 -2 -11 -19 -20 -51 -26 -26 -4 -47 -12 -47 -16 0 -5 28
-14 62 -22 74 -16 97 -45 27 -34 -24 4 -54 9 -66 13 -34 8 -28 -11 12 -38 19
-13 35 -30 35 -36 0 -18 -2 -17 -59 19 -54 33 -70 33 -52 0 13 -25 14 -42 3
-42 -5 0 -19 23 -32 51 -24 50 -67 85 -93 76 -7 -2 1 -10 16 -18 19 -8 39 -33
58 -71 22 -43 35 -58 50 -58 12 0 23 8 26 20 6 24 13 25 39 5 25 -19 48 -19
64 0 10 13 9 19 -6 37 -19 21 -19 21 12 15 44 -8 74 14 57 42 -16 25 -1 36 27
19 18 -11 26 -10 60 9 l39 23 3 -27 c6 -51 34 -40 68 26 20 40 40 66 60 76 42
22 28 39 -14 18 -24 -11 -41 -30 -57 -65 -29 -62 -44 -73 -35 -24 4 20 4 36 0
36 -4 0 -29 -14 -56 -31 -61 -39 -76 -28 -23 16 46 39 42 51 -12 36 -51 -14
-86 -14 -81 1 3 7 32 18 66 26 34 7 62 17 62 22 0 5 -17 12 -37 15 -56 10 -63
13 -63 30 0 12 10 14 60 8 33 -3 60 -2 60 3 0 5 -9 20 -20 34 -20 26 -26 50
-12 50 4 0 24 -14 44 -30 l37 -30 43 16 c47 19 65 31 56 39 -3 3 -26 -3 -51
-14 -54 -23 -59 -19 -71 57 -12 77 -28 142 -34 141 -4 -1 -81 -15 -171 -33z
m-7 -55 c-10 -16 -28 -31 -41 -34 -22 -4 -23 -3 -10 17 7 11 17 27 21 34 4 6
16 12 27 12 19 0 20 -1 3 -29z m-20 -78 c19 -70 18 -80 -11 -86 -15 -3 -29 -4
-30 -3 -1 1 -5 25 -9 54 -6 51 -6 52 19 52 16 0 28 -7 31 -17z"/>
<path d="M535 100 c-3 -11 -17 -23 -31 -26 -28 -7 -32 -24 -6 -24 20 0 62 39
62 58 0 20 -18 14 -25 -8z"/>
<path d="M565 70 c-3 -11 -17 -23 -31 -26 -28 -7 -32 -24 -6 -24 20 0 62 39
62 58 0 20 -18 14 -25 -8z"/>
</g>
</svg>
