<?xml version="1.0" standalone="no"?>
<!DOCTYPE svg PUBLIC "-//W3C//DTD SVG 20010904//EN"
 "http://www.w3.org/TR/2001/REC-SVG-20010904/DTD/svg10.dtd">
<svg version="1.0" xmlns="http://www.w3.org/2000/svg"
 width="225.000000pt" height="225.000000pt" viewBox="0 0 225.000000 225.000000"
 preserveAspectRatio="xMidYMid meet">

<g transform="translate(0.000000,225.000000) scale(0.100000,-0.100000)"
fill="#000000" stroke="none">
<path d="M512 2063 c-6 -2 -10 -9 -6 -14 8 -14 21 -11 21 6 0 8 -1 15 -1 14
-1 0 -7 -3 -14 -6z"/>
<path d="M1164 2005 l-25 -25 4 -198 c2 -123 8 -205 15 -217 9 -16 11 23 12
173 l0 192 110 0 c81 0 110 -3 111 -12 1 -7 2 -185 3 -395 l1 -382 -113 -3
-112 -3 0 129 c0 113 -2 127 -15 116 -12 -10 -15 -43 -15 -177 0 -162 0 -164
25 -189 l25 -25 236 3 c234 3 236 3 255 27 18 22 19 43 19 305 0 277 0 283
-22 312 -13 17 -29 30 -36 28 -7 -1 -8 0 -2 3 16 8 12 28 -10 48 -16 14 -20
31 -20 77 l0 58 -80 0 -80 0 0 40 0 41 113 -3 112 -3 3 -32 c2 -22 9 -33 19
-33 13 0 15 11 11 62 -4 51 -9 65 -32 85 -27 23 -30 23 -257 23 l-230 0 -25
-25z m391 -260 c2 -30 13 -48 64 -99 l61 -62 0 -220 c0 -121 -2 -223 -4 -225
-2 -2 -54 -3 -115 -1 l-111 3 0 153 c0 118 -3 156 -15 172 -8 10 -14 28 -14
39 0 11 6 29 14 39 11 15 15 49 15 132 l0 113 43 3 c52 4 59 -1 62 -47z m-128
-342 c-3 -10 -5 -4 -5 12 0 17 2 24 5 18 2 -7 2 -21 0 -30z m0 -120 c-2 -16
-4 -5 -4 22 0 28 2 40 4 28 2 -13 2 -35 0 -50z m0 -95 c-3 -7 -5 -2 -5 12 0
14 2 19 5 13 2 -7 2 -19 0 -25z"/>
<path d="M260 1830 c0 -5 5 -10 10 -10 6 0 10 5 10 10 0 6 -4 10 -10 10 -5 0
-10 -4 -10 -10z"/>
<path d="M1152 1515 c-16 -34 -15 -50 3 -65 13 -11 15 -6 15 39 0 28 -2 51 -3
51 -2 0 -9 -11 -15 -25z"/>
<path d="M1930 1092 c-19 -20 -115 -114 -212 -208 l-176 -170 126 -127 c69
-70 129 -126 134 -125 4 2 100 95 213 207 l205 204 -127 129 c-70 70 -127 128
-128 128 0 0 -16 -17 -35 -38z"/>
<path d="M1020 856 c0 -56 20 -95 61 -116 16 -9 217 -40 258 -40 22 0 -157
179 -196 196 -18 8 -53 14 -78 14 l-45 0 0 -54z"/>
<path d="M455 571 c-25 -17 -46 -21 -126 -21 l-95 0 -1 -36 c-1 -42 7 -46 120
-64 42 -7 77 -17 77 -22 0 -5 12 -20 26 -33 l27 -25 -94 0 -94 -1 70 -67 c161
-154 363 -251 601 -287 118 -18 179 -19 299 -4 235 29 479 146 635 303 l54 56
-336 0 -337 0 22 34 c22 33 22 33 117 38 52 3 103 9 112 13 18 7 42 67 36 86
-3 8 -43 11 -121 10 -104 -2 -121 0 -146 18 -38 27 -105 28 -149 1 -30 -19
-50 -20 -279 -20 -216 0 -249 2 -265 17 -29 26 -117 28 -153 4z m103 -73 c7
-7 12 -21 12 -33 0 -44 -60 -63 -80 -26 -14 27 -13 37 6 55 18 19 45 21 62 4z
m542 -25 c0 -23 5 -33 15 -33 8 0 15 -4 15 -9 0 -4 11 -20 25 -35 l24 -26
-306 0 -306 0 27 21 c14 11 26 27 26 35 0 8 9 14 21 14 16 0 20 6 19 28 -1 15
-2 29 -1 32 1 3 100 5 221 5 l220 0 0 -32z m158 25 c28 -28 7 -78 -33 -78 -27
0 -45 18 -45 47 0 36 52 57 78 31z"/>
<path d="M520 459 c0 -5 5 -7 10 -4 6 3 10 8 10 11 0 2 -4 4 -10 4 -5 0 -10
-5 -10 -11z"/>
<path d="M1220 459 c0 -5 5 -7 10 -4 6 3 10 8 10 11 0 2 -4 4 -10 4 -5 0 -10
-5 -10 -11z"/>
</g>
</svg>
