<?xml version="1.0" standalone="no"?>
<!DOCTYPE svg PUBLIC "-//W3C//DTD SVG 20010904//EN"
 "http://www.w3.org/TR/2001/REC-SVG-20010904/DTD/svg10.dtd">
<svg version="1.0" xmlns="http://www.w3.org/2000/svg"
 width="168.000000pt" height="300.000000pt" viewBox="0 0 168.000000 300.000000"
 preserveAspectRatio="xMidYMid meet">

<g transform="translate(0.000000,300.000000) scale(0.100000,-0.100000)"
fill="#000000" stroke="none">
<path d="M807 2793 c-300 -2 -483 -7 -490 -13 -7 -6 -25 -20 -40 -31 -15 -12
-36 -37 -46 -57 -17 -35 -18 -91 -17 -1210 1 -1031 3 -1174 16 -1182 8 -5 11
-10 7 -10 -17 0 52 -60 70 -60 15 0 16 -2 3 -10 -9 -6 -10 -10 -3 -10 6 0 20
-3 30 -6 15 -5 15 -4 3 5 -9 7 -10 11 -3 11 6 0 14 -4 17 -8 2 -4 177 -7 388
-6 463 3 628 6 623 14 -2 3 8 10 21 17 18 8 22 8 17 0 -4 -7 7 2 24 18 18 17
36 41 41 55 9 22 17 1468 13 2156 -1 202 -2 213 -24 245 -31 46 -84 80 -112
73 -13 -3 -26 -1 -29 5 -4 6 -13 10 -19 9 -7 -2 -227 -4 -490 -5z m614 -50
c13 -16 12 -17 -3 -4 -17 13 -22 21 -14 21 2 0 10 -8 17 -17z m-781 -13 c0 -5
-9 -10 -21 -10 -11 0 -17 5 -14 10 3 6 13 10 21 10 8 0 14 -4 14 -10z m80 -10
c0 -16 -7 -20 -37 -20 l-38 0 30 20 c38 25 45 25 45 0z m37 14 c-3 -3 -12 -4
-19 -1 -8 3 -5 6 6 6 11 1 17 -2 13 -5z m265 -22 c4 -26 1 -28 -29 -30 -23 -2
-35 3 -43 18 -8 15 -8 20 2 21 7 1 -3 5 -22 9 -30 6 -27 8 26 9 60 1 62 0 66
-27z m68 13 c-11 -13 -4 -15 50 -15 84 0 73 -6 -22 -13 -77 -5 -78 -5 -78 19
0 20 5 24 31 24 27 0 30 -2 19 -15z m255 3 c14 -6 25 -18 25 -27 0 -13 -1 -13
-12 1 -15 17 -53 33 -43 18 3 -6 -2 -10 -12 -10 -14 0 -15 -2 -5 -9 11 -7 11
-9 0 -14 -16 -6 -21 24 -6 34 5 3 -13 4 -41 1 -34 -3 -51 -1 -51 7 0 15 111
15 145 -1z m106 -25 c13 -16 12 -17 -3 -4 -17 13 -22 21 -14 21 2 0 10 -8 17
-17z m-811 -3 c0 -5 -7 -10 -15 -10 -8 0 -15 5 -15 10 0 6 7 10 15 10 8 0 15
-4 15 -10z m705 0 c3 -5 2 -10 -4 -10 -5 0 -13 5 -16 10 -3 6 -2 10 4 10 5 0
13 -4 16 -10z m-457 -28 c12 10 14 10 8 1 -4 -8 -1 -13 8 -13 9 0 16 3 16 8 0
9 428 8 437 -2 3 -3 19 -6 35 -6 l28 0 0 -1165 0 -1165 -34 -38 -34 -37 -512
0 -512 0 -34 37 -34 38 2 1165 3 1166 293 1 c201 0 294 4 299 11 5 8 8 7 11
-1 3 -10 7 -10 20 0z m579 -54 c-2 -13 -4 -3 -4 22 0 25 2 35 4 23 2 -13 2
-33 0 -45z m0 -560 c-1 -40 -3 -10 -3 67 0 77 1 110 3 73 2 -37 2 -100 0 -140z
m0 -1720 c-3 -8 -6 -5 -6 6 -1 11 2 17 5 13 3 -3 4 -12 1 -19z"/>
<path d="M1346 2625 c-5 -13 0 -16 27 -13 37 3 39 21 4 26 -15 2 -27 -3 -31
-13z"/>
<path d="M441 1944 c0 -11 3 -14 6 -6 3 7 2 16 -1 19 -3 4 -6 -2 -5 -13z"/>
<path d="M421 1874 c0 -11 3 -14 6 -6 3 7 2 16 -1 19 -3 4 -6 -2 -5 -13z"/>
<path d="M411 1834 c0 -11 3 -14 6 -6 3 7 2 16 -1 19 -3 4 -6 -2 -5 -13z"/>
<path d="M390 1772 c0 -12 41 -33 63 -31 7 0 -1 5 -18 11 -16 6 -33 16 -37 22
-5 8 -8 7 -8 -2z"/>
<path d="M495 1729 c17 -7 31 -13 33 -14 1 -1 -5 -33 -14 -71 l-16 -69 82
-240 c45 -132 83 -241 84 -242 1 -1 64 17 140 39 l137 42 155 -38 c122 -31
154 -42 154 -56 0 -9 -25 -126 -55 -259 -30 -134 -55 -249 -55 -256 0 -12 58
-30 68 -20 3 3 -9 8 -27 11 -27 6 -32 11 -27 28 30 123 117 518 114 520 -1 1
-75 21 -164 44 l-161 41 -132 -41 c-74 -23 -136 -37 -140 -32 -4 5 -43 110
-86 234 l-78 224 18 74 c9 40 15 75 14 76 -2 2 -20 6 -39 10 l-35 6 30 -11z"/>
<path d="M1211 410 c-15 -72 -14 -77 17 -84 15 -4 35 -9 45 -12 9 -3 17 -1 17
5 0 6 -3 10 -7 9 -20 -6 -73 13 -73 25 0 8 6 35 14 60 8 26 10 47 6 47 -5 0
-13 -23 -19 -50z"/>
</g>
</svg>
