<?xml version="1.0" standalone="no"?>
<!DOCTYPE svg PUBLIC "-//W3C//DTD SVG 20010904//EN"
 "http://www.w3.org/TR/2001/REC-SVG-20010904/DTD/svg10.dtd">
<svg version="1.0" xmlns="http://www.w3.org/2000/svg"
 width="266.000000pt" height="189.000000pt" viewBox="0 0 266.000000 189.000000"
 preserveAspectRatio="xMidYMid meet">

<g transform="translate(0.000000,189.000000) scale(0.100000,-0.100000)"
fill="#000000" stroke="none">
<path d="M1885 1881 c-11 -5 -29 -19 -40 -31 -18 -20 -16 -20 19 4 45 30 120
37 130 11 9 -23 261 -22 274 1 14 25 104 14 140 -17 l27 -23 -28 29 -27 30
-238 2 c-130 1 -246 -2 -257 -6z"/>
<path d="M1815 1798 c-7 -27 -1 -1043 5 -1073 4 -14 0 -19 -10 -17 -8 2 -11 0
-7 -4 11 -12 38 -14 31 -2 -3 5 3 4 15 -4 12 -7 21 -15 21 -18 0 -3 -80 -7
-178 -9 -198 -4 -225 -11 -248 -66 -18 -43 -18 -92 -1 -102 8 -4 20 -21 28
-37 8 -17 29 -39 47 -49 29 -17 39 -18 72 -8 30 9 42 20 57 51 l18 39 143 1
142 0 0 74 c0 66 -3 77 -22 90 -21 15 -6 16 179 16 124 0 204 4 208 10 4 7
-67 10 -205 10 -232 0 -257 5 -279 57 -8 21 -11 169 -9 546 2 284 2 517 1 517
-2 0 -5 -10 -8 -22z m-214 -1246 c28 -24 31 -79 4 -98 -43 -32 -105 -5 -105
46 0 59 56 88 101 52z"/>
<path d="M2445 1375 c0 -231 1 -324 2 -207 2 117 2 306 0 420 -1 114 -2 18 -2
-213z"/>
<path d="M2100 1680 c-30 -30 -25 -73 11 -115 31 -35 32 -35 51 -18 26 23 48
66 48 93 0 28 -35 60 -65 60 -14 0 -34 -9 -45 -20z m64 -25 c20 -20 10 -45
-19 -45 -29 0 -39 25 -19 45 9 8 17 15 19 15 2 0 10 -7 19 -15z"/>
<path d="M1543 1633 c8 -7 119 -5 126 3 2 2 -26 4 -64 4 -38 0 -65 -3 -62 -7z"/>
<path d="M1628 1602 c-26 -9 -50 -20 -54 -24 -15 -16 23 -7 71 16 58 28 50 32
-17 8z"/>
<path d="M2164 1460 c-5 -5 -79 -11 -164 -12 -151 -3 -155 -4 -158 -25 -5 -34
22 -41 171 -42 160 -1 178 4 174 54 -2 37 -7 41 -23 25z m-247 -33 c7 0 14 -5
16 -12 6 -13 -30 -18 -38 -4 -4 5 -12 9 -18 9 -7 0 -6 -4 3 -10 9 -6 10 -10 3
-10 -6 0 -15 5 -18 10 -10 16 5 32 24 24 9 -3 21 -7 28 -7z m206 -2 c44 2 59
-6 37 -20 -5 -3 -10 0 -10 7 0 8 -3 9 -8 3 -10 -15 -132 -14 -132 0 0 19 10
24 38 16 15 -4 48 -6 75 -6z m-123 -6 c0 -10 -23 -17 -37 -11 -22 7 -14 18 12
18 14 0 25 -3 25 -7z"/>
<path d="M565 1033 c-39 -10 -115 -46 -115 -54 0 -5 14 -2 31 6 30 16 30 16
19 -4 -6 -12 -16 -21 -23 -21 -20 -1 25 -30 46 -30 16 0 17 3 7 15 -10 12 -10
15 4 15 9 0 16 7 16 15 0 18 12 19 28 3 9 -9 12 -8 12 5 0 9 -8 20 -17 26 -14
7 -8 11 28 19 34 8 37 10 14 10 -16 0 -39 -3 -50 -5z"/>
<path d="M1060 1026 c0 -8 14 -17 30 -21 32 -7 39 -22 15 -31 -18 -7 -20 -37
-2 -32 6 3 18 15 24 29 11 22 13 22 14 4 l0 -20 9 20 c12 28 12 32 -6 49 -20
20 -84 22 -84 2z"/>
<path d="M356 906 c-46 -48 -57 -74 -33 -80 6 -2 31 -9 53 -16 33 -10 48 -10
77 0 32 12 34 15 25 39 -5 14 -24 44 -42 65 l-34 39 -46 -47z"/>
<path d="M650 918 c0 -13 -7 -36 -15 -53 l-15 -30 20 24 c17 20 29 81 15 81
-3 0 -5 -10 -5 -22z"/>
<path d="M2040 889 c-22 -40 2 -50 109 -47 88 3 96 5 99 24 4 27 -50 44 -136
44 -52 0 -63 -3 -72 -21z m108 -11 c-2 -6 -10 -14 -18 -16 -9 -3 -10 0 -4 9 7
12 5 12 -9 0 -12 -9 -17 -10 -17 -2 0 7 -4 9 -10 6 -5 -3 -10 -1 -10 4 0 6 16
11 36 11 23 0 34 -4 32 -12z m60 -5 c2 -9 -7 -13 -27 -13 -23 0 -29 4 -24 16
6 17 44 15 51 -3z"/>
<path d="M606 784 c-9 -23 -8 -24 14 -24 13 0 20 7 20 20 0 24 -25 27 -34 4z"/>
<path d="M733 720 c0 -30 2 -43 4 -27 2 15 2 39 0 55 -2 15 -4 2 -4 -28z"/>
<path d="M42 663 c-33 -13 -55 -108 -33 -142 10 -16 28 -19 113 -20 52 -1 58
-3 64 -25 17 -67 108 -94 158 -47 20 19 23 27 14 38 -9 11 -15 10 -33 -7 -41
-39 -105 -14 -105 41 0 34 11 46 60 73 l43 23 31 -40 c46 -60 60 -60 53 -1 -4
39 -12 55 -41 81 l-36 33 -137 -1 c-76 0 -144 -3 -151 -6z"/>
<path d="M1066 631 c-3 -5 -87 -8 -186 -8 l-180 2 0 -26 0 -25 177 3 c165 3
178 5 185 23 5 12 13 17 23 14 8 -3 15 -1 15 4 0 6 24 13 53 15 49 3 48 3 -15
5 -37 1 -69 -2 -72 -7z"/>
<path d="M1204 607 c-3 -10 -3 -21 1 -25 3 -4 45 -5 93 -4 67 2 90 7 99 19 7
9 11 18 9 21 -3 2 -48 5 -100 6 -85 1 -97 -1 -102 -17z"/>
<path d="M1111 604 c0 -11 3 -14 6 -6 3 7 2 16 -1 19 -3 4 -6 -2 -5 -13z"/>
<path d="M1161 594 c0 -11 3 -14 6 -6 3 7 2 16 -1 19 -3 4 -6 -2 -5 -13z"/>
<path d="M1083 569 c4 -13 7 -29 7 -35 0 -6 6 -11 14 -11 11 0 12 6 4 29 -13
36 -34 51 -25 17z"/>
<path d="M1190 552 c0 -25 16 -37 23 -18 3 8 -1 20 -9 26 -11 10 -14 9 -14 -8z"/>
<path d="M858 543 c34 -2 90 -2 125 0 34 2 6 3 -63 3 -69 0 -97 -1 -62 -3z"/>
<path d="M1048 528 c-1 -13 0 -43 1 -68 1 -31 -1 -41 -7 -31 -7 10 -9 5 -8
-17 1 -17 5 -34 9 -39 5 -4 5 0 1 10 -4 10 -1 17 6 17 9 0 11 -16 7 -57 -4
-38 -3 -49 2 -33 l9 25 1 -27 c2 -48 -27 -34 -32 15 -3 30 -4 24 -4 -20 0 -52
3 -60 16 -55 14 5 14 4 1 -14 -8 -10 -22 -24 -30 -31 -13 -10 -11 -12 11 -13
22 0 28 6 33 32 15 75 17 127 8 161 -6 22 -7 37 -1 37 5 0 9 -10 10 -22 1 -16
4 -11 11 15 11 39 6 67 -12 67 -14 0 -13 -27 3 -33 9 -4 9 -6 -1 -6 -19 -1
-35 49 -23 74 9 19 10 19 10 -4 1 -13 4 -22 7 -18 9 9 -5 57 -16 57 -6 0 -11
-10 -12 -22z"/>
<path d="M1156 524 c-4 -9 -4 -19 -1 -22 2 -3 7 3 11 12 4 9 4 19 1 22 -2 3
-7 -3 -11 -12z"/>
<path d="M1180 500 c0 -5 5 -10 10 -10 6 0 10 5 10 10 0 6 -4 10 -10 10 -5 0
-10 -4 -10 -10z"/>
<path d="M1160 480 c0 -5 5 -10 11 -10 5 0 7 5 4 10 -3 6 -8 10 -11 10 -2 0
-4 -4 -4 -10z"/>
<path d="M1213 467 c-8 -17 -7 -28 2 -40 11 -16 13 -16 19 -1 8 22 8 26 -4 19
-7 -4 -9 2 -4 19 8 32 1 34 -13 3z"/>
<path d="M1181 440 c1 -24 15 -55 21 -44 2 5 -1 20 -8 34 -8 14 -13 18 -13 10z"/>
<path d="M1222 374 c-13 -26 0 -70 17 -59 5 3 12 -2 15 -11 4 -9 9 -15 12 -12
2 3 0 17 -5 31 -7 17 -16 25 -25 21 -11 -4 -13 0 -9 15 3 11 9 18 14 15 5 -3
9 2 9 10 0 24 -15 19 -28 -10z"/>
<path d="M1247 273 c3 -7 16 -13 30 -13 21 0 23 -3 18 -22 -4 -13 -14 -29 -23
-35 -14 -12 -13 -13 5 -13 33 0 45 22 32 59 -6 17 -14 31 -17 32 -44 5 -50 4
-45 -8z"/>
</g>
</svg>
